<?xml version="1.0" encoding="utf-8"?>
<!-- Generator: Adobe Illustrator 26.0.0, SVG Export Plug-In . SVG Version: 6.00 Build 0)  -->
<svg version="1.1" xmlns="http://www.w3.org/2000/svg" xmlns:xlink="http://www.w3.org/1999/xlink" x="0px" y="0px"
	 viewBox="0 0 500 500" style="enable-background:new 0 0 500 500;" xml:space="preserve">
<style type="text/css">
	.st0{fill:#DED7FF;}
	
		.st1{fill:none;stroke:#FFC655;stroke-width:2;stroke-linecap:round;stroke-linejoin:round;stroke-miterlimit:10;stroke-dasharray:6,6;}
	.st2{fill:#D42190;}
	.st3{fill:#B19CFE;}
	.st4{fill:#FFC655;}
	.st5{fill:#EAEAEA;}
	.st6{fill:none;stroke:#09136E;stroke-width:1.5;stroke-miterlimit:10;}
	.st7{fill:#09136E;}
	.st8{fill:#FFFFFF;}
	.st9{fill:#542FD0;}
	.st10{fill:#CCCCCC;}
	.st11{font-family:'Montserrat-Bold';}
	.st12{font-size:36.8915px;}
	.st13{letter-spacing:1;}
	.st14{font-size:23.6044px;}
</style>
<g id="BACKGROUND">
</g>
<g id="OBJECTS">
	<circle class="st0" cx="250" cy="250" r="182.5"/>
	
		<ellipse transform="matrix(0.7071 -0.7071 0.7071 0.7071 -113.6382 129.4716)" class="st1" cx="99.5" cy="201.9" rx="75.5" ry="75.5"/>
	<circle class="st1" cx="387.4" cy="329.2" r="88.6"/>
	<g>
		<path class="st2" d="M372,144.2v204.6c0,7.1-5.7,12.8-12.8,12.8H135.3c-7.1,0-12.8-5.7-12.8-12.8V144.2c0-7.1,5.7-12.8,12.8-12.8
			h223.9C366.3,131.4,372,137.1,372,144.2z"/>
		<path class="st3" d="M122.5,149.7v203.9c0,4.4,3.6,8,8,8H364c4.4,0,8-3.6,8-8V149.7H122.5z"/>
		<g>
			<g>
				<g>
					<path class="st4" d="M140.4,141.7c0,1.3-1.1,2.4-2.4,2.4c-1.3,0-2.4-1.1-2.4-2.4c0-1.3,1.1-2.4,2.4-2.4
						C139.3,139.3,140.4,140.4,140.4,141.7z"/>
					<path class="st4" d="M155.5,141.7c0,1.3-1.1,2.4-2.4,2.4c-1.3,0-2.4-1.1-2.4-2.4c0-1.3,1.1-2.4,2.4-2.4
						C154.4,139.3,155.5,140.4,155.5,141.7z"/>
					<path class="st4" d="M170.6,141.7c0,1.3-1.1,2.4-2.4,2.4c-1.3,0-2.4-1.1-2.4-2.4c0-1.3,1.1-2.4,2.4-2.4
						C169.5,139.3,170.6,140.4,170.6,141.7z"/>
					<path class="st4" d="M185.7,141.7c0,1.3-1.1,2.4-2.4,2.4c-1.3,0-2.4-1.1-2.4-2.4c0-1.3,1.1-2.4,2.4-2.4
						C184.6,139.3,185.7,140.4,185.7,141.7z"/>
				</g>
				<path class="st4" d="M356.6,141.7l2.3-2.2c0.1-0.1,0.2-0.4,0-0.6c-0.1-0.2-0.4-0.2-0.5,0l-2.3,2.3l-2.3-2.3
					c-0.1-0.1-0.4-0.1-0.5,0c-0.1,0.2-0.1,0.4,0,0.6l2.3,2.2l-2.3,2.2c-0.1,0.1-0.2,0.4,0,0.6c0.1,0.1,0.2,0.1,0.3,0.1
					c0.1,0,0.2,0,0.2-0.1l2.3-2.3l2.3,2.3c0.1,0.1,0.2,0.1,0.2,0.1c0.1,0,0.2,0,0.3-0.1c0.1-0.2,0.1-0.4,0-0.6L356.6,141.7z"/>
			</g>
		</g>
	</g>
	<path class="st5" d="M161.2,180.4h-60c-5.9,0-10.6-4.7-10.6-10.6v-56.5c0-5.9,4.7-10.6,10.6-10.6h60c5.9,0,10.6,4.7,10.6,10.6v56.5
		C171.8,175.7,167.1,180.4,161.2,180.4z"/>
	<path class="st5" d="M434.2,293.8h-72.3c-5.9,0-10.6-4.7-10.6-10.6v-68.3c0-5.9,4.7-10.6,10.6-10.6h72.3c5.9,0,10.6,4.7,10.6,10.6
		v68.3C444.8,289.1,440,293.8,434.2,293.8z"/>
	<path class="st5" d="M377.5,395.1h-72.3c-5.9,0-10.6-4.7-10.6-10.6v-68.3c0-5.9,4.7-10.6,10.6-10.6h72.3c5.9,0,10.6,4.7,10.6,10.6
		v68.3C388.1,390.4,383.4,395.1,377.5,395.1z"/>
	<path class="st5" d="M190.4,411.3h-72.3c-5.9,0-10.6-4.7-10.6-10.6v-68.3c0-5.9,4.7-10.6,10.6-10.6h72.3c5.9,0,10.6,4.7,10.6,10.6
		v68.3C200.9,406.5,196.2,411.3,190.4,411.3z"/>
	<path class="st5" d="M124.2,306.7H56.9c-5.9,0-10.6-4.7-10.6-10.6v-63.5c0-5.9,4.7-10.6,10.6-10.6h67.3c5.9,0,10.6,4.7,10.6,10.6
		v63.5C134.8,301.9,130,306.7,124.2,306.7z"/>
	<path class="st5" d="M377.2,163.3h-72.3c-5.9,0-10.6-4.7-10.6-10.6V84.5c0-5.9,4.7-10.6,10.6-10.6h72.3c5.9,0,10.6,4.7,10.6,10.6
		v68.3C387.8,158.6,383,163.3,377.2,163.3z"/>
	<path class="st6" d="M445.8,154.6h-11.5c-0.7-2.3-1.7-4.5-2.8-6.5l7.9-8.3c2.9-3.1,2.8-7.9-0.3-10.8l-6.8-6.4
		c-3.1-2.9-7.9-2.8-10.8,0.3l-7.9,8.3c-1.5-0.7-3.1-1.3-4.7-1.9v-11.5c0-4.2-3.4-7.6-7.6-7.6h-9.4c-4.2,0-7.6,3.4-7.6,7.6v11.5
		c-1.6,0.5-3.2,1.2-4.7,1.9l-7.9-8.3c-2.9-3.1-7.7-3.2-10.8-0.3l-6.8,6.4c-3.1,2.9-3.2,7.7-0.3,10.8l7.9,8.3
		c-1.1,2.1-2.1,4.3-2.8,6.5h-11.5c-4.2,0-7.6,3.4-7.6,7.6v9.4c0,4.2,3.4,7.6,7.6,7.6h11.5c0.7,2.3,1.7,4.5,2.8,6.5l-7.9,8.3
		c-2.9,3.1-2.8,7.9,0.3,10.8l6.8,6.4c3.1,2.9,7.9,2.8,10.8-0.3l7.9-8.3c1.5,0.7,3.1,1.3,4.7,1.9V216c0,4.2,3.4,7.6,7.6,7.6h9.4
		c4.2,0,7.6-3.4,7.6-7.6v-11.5c1.6-0.5,3.2-1.2,4.7-1.9l7.9,8.3c2.9,3.1,7.7,3.2,10.8,0.3l6.8-6.4c3.1-2.9,3.2-7.7,0.3-10.8
		l-7.9-8.3c1.1-2.1,2.1-4.3,2.8-6.5h11.5c4.2,0,7.6-3.4,7.6-7.6v-9.4C453.4,158,450,154.6,445.8,154.6z M396.6,192.3
		c-14,0-25.4-11.4-25.4-25.4c0-14,11.4-25.4,25.4-25.4c14,0,25.4,11.4,25.4,25.4C422,180.9,410.6,192.3,396.6,192.3z"/>
	<path class="st7" d="M152.2,319.3h-11.5c-0.7-2.3-1.7-4.5-2.8-6.5l7.9-8.3c2.9-3.1,2.8-7.9-0.3-10.8l-6.8-6.4
		c-3.1-2.9-7.9-2.8-10.8,0.3l-7.9,8.3c-1.5-0.7-3.1-1.3-4.7-1.9v-11.5c0-4.2-3.4-7.6-7.6-7.6h-9.4c-4.2,0-7.6,3.4-7.6,7.6v11.5
		c-1.6,0.5-3.2,1.2-4.7,1.9l-7.9-8.3c-2.9-3.1-7.7-3.2-10.8-0.3l-6.8,6.4c-3.1,2.9-3.2,7.7-0.3,10.8l7.9,8.3
		c-1.1,2.1-2.1,4.3-2.8,6.5H53.9c-4.2,0-7.6,3.4-7.6,7.6v9.4c0,4.2,3.4,7.6,7.6,7.6h11.5c0.7,2.3,1.7,4.5,2.8,6.5l-7.9,8.3
		c-2.9,3.1-2.8,7.9,0.3,10.8l6.8,6.4c3.1,2.9,7.9,2.8,10.8-0.3l7.9-8.3c1.5,0.7,3.1,1.3,4.7,1.9v11.5c0,4.2,3.4,7.6,7.6,7.6h9.4
		c4.2,0,7.6-3.4,7.6-7.6v-11.5c1.6-0.5,3.2-1.2,4.7-1.9l7.9,8.3c2.9,3.1,7.7,3.2,10.8,0.3l6.8-6.4c3.1-2.9,3.2-7.7,0.3-10.8
		l-7.9-8.3c1.1-2.1,2.1-4.3,2.8-6.5h11.5c4.2,0,7.6-3.4,7.6-7.6v-9.4C159.9,322.7,156.5,319.3,152.2,319.3z M103.1,357
		c-14,0-25.4-11.4-25.4-25.4c0-14,11.4-25.4,25.4-25.4c14,0,25.4,11.4,25.4,25.4C128.5,345.6,117.1,357,103.1,357z"/>
	<g>
		<path class="st2" d="M441.3,287H369c-5.9,0-10.6-4.7-10.6-10.6v-68.3c0-5.9,4.7-10.6,10.6-10.6h72.3c5.9,0,10.6,4.7,10.6,10.6
			v68.3C451.9,282.2,447.2,287,441.3,287z"/>
		<g>
			<g>
				<g>
					<g>
						<path class="st8" d="M411.8,229.1l-4.3-0.6c-0.2-0.9-0.4-1.8-0.7-2.6l3.4-2.7c1.2-1,1.4-2.8,0.5-4l-2.2-2.8
							c-1-1.2-2.8-1.4-4-0.5l-3.4,2.7c-0.5-0.3-1.1-0.7-1.7-0.9l0.6-4.3c0.2-1.6-0.9-3-2.5-3.3l-3.5-0.5c-1.6-0.2-3,0.9-3.3,2.5
							l-0.6,4.3c-0.6,0.1-1.2,0.3-1.9,0.5l-2.5-3.5c-0.9-1.3-2.7-1.6-4-0.7l-2.9,2.1c-1.3,0.9-1.6,2.7-0.7,4l2.5,3.5
							c-0.5,0.7-1,1.5-1.4,2.3L375,224c-1.6-0.2-3,0.9-3.3,2.5l-0.5,3.5c-0.2,1.6,0.9,3,2.5,3.3l4.3,0.6c0.2,0.9,0.4,1.8,0.7,2.6
							l-3.4,2.7c-1.2,1-1.4,2.8-0.5,4l2.2,2.8c1,1.2,2.8,1.4,4,0.5l3.4-2.7c0.5,0.3,1.1,0.7,1.7,0.9l-0.6,4.3
							c-0.2,1.6,0.9,3,2.5,3.3l3.5,0.5c1.6,0.2,3-0.9,3.3-2.5l0.6-4.3c0.6-0.1,1.2-0.3,1.9-0.5l2.5,3.5c0.9,1.3,2.7,1.6,4,0.7
							l2.9-2.1c1.3-0.9,1.6-2.7,0.7-4l-2.5-3.5c0.5-0.7,1-1.5,1.4-2.3l4.3,0.6c1.6,0.2,3-0.9,3.3-2.5l0.5-3.5
							C414.4,230.8,413.3,229.3,411.8,229.1z M391.4,240.6c-5.2-0.7-8.9-5.6-8.2-10.8c0.7-5.2,5.6-8.9,10.8-8.2
							c5.2,0.7,8.9,5.6,8.2,10.8C401.5,237.7,396.7,241.4,391.4,240.6z"/>
					</g>
				</g>
				<g>
					<g>
						<path class="st8" d="M437.1,256.1l-3.4-0.5c-0.1-0.7-0.3-1.4-0.6-2.1l2.7-2.1c1-0.8,1.1-2.2,0.4-3.2l-1.7-2.2
							c-0.8-1-2.2-1.1-3.2-0.4l-2.7,2.1c-0.4-0.3-0.9-0.5-1.3-0.7l0.5-3.4c0.2-1.2-0.7-2.4-1.9-2.6l-2.8-0.4
							c-1.2-0.2-2.4,0.7-2.6,1.9l-0.5,3.4c-0.5,0.1-1,0.2-1.5,0.4l-2-2.8c-0.7-1-2.2-1.3-3.2-0.5l-2.3,1.6c-1,0.7-1.3,2.2-0.5,3.2
							l2,2.8c-0.4,0.6-0.8,1.2-1.1,1.8l-3.4-0.5c-1.2-0.2-2.4,0.7-2.6,1.9l-0.4,2.8c-0.2,1.2,0.7,2.4,1.9,2.6l3.4,0.5
							c0.1,0.7,0.3,1.4,0.6,2.1l-2.7,2.1c-1,0.8-1.1,2.2-0.4,3.2l1.7,2.2c0.8,1,2.2,1.1,3.2,0.4l2.7-2.1c0.4,0.3,0.9,0.5,1.3,0.7
							l-0.5,3.4c-0.2,1.2,0.7,2.4,1.9,2.6l2.8,0.4c1.2,0.2,2.4-0.7,2.6-1.9l0.5-3.4c0.5-0.1,1-0.2,1.5-0.4l2,2.8
							c0.7,1,2.2,1.3,3.2,0.5l2.3-1.6c1-0.7,1.3-2.2,0.5-3.2l-2-2.8c0.4-0.6,0.8-1.2,1.1-1.8l3.4,0.5c1.2,0.2,2.4-0.7,2.6-1.9
							l0.4-2.8C439.2,257.5,438.4,256.3,437.1,256.1z M421,265.3c-4.2-0.6-7.1-4.4-6.5-8.6c0.6-4.2,4.4-7.1,8.6-6.5
							c4.2,0.6,7.1,4.4,6.5,8.6C429,263,425.1,265.9,421,265.3z"/>
					</g>
				</g>
			</g>
		</g>
	</g>
	<g>
		<path class="st9" d="M385.8,403.9h-72.3c-5.9,0-10.6-4.7-10.6-10.6V325c0-5.9,4.7-10.6,10.6-10.6h72.3c5.9,0,10.6,4.7,10.6,10.6
			v68.3C396.4,399.2,391.6,403.9,385.8,403.9z"/>
		<g>
			<g>
				<g>
					<g>
						
							<ellipse transform="matrix(0.1523 -0.9883 0.9883 0.1523 -46.9265 639.6821)" class="st3" cx="349.4" cy="347.2" rx="8.1" ry="8.1"/>
					</g>
					<g>
						<path class="st3" d="M356.3,354.2c-1.8,1.7-4.2,2.8-6.8,2.8c-2.7,0-5.1-1.1-6.8-2.8c-3.8,2.2-6.4,6.2-6.4,10.8v7.1h26.4V365
							C362.6,360.5,360.1,356.4,356.3,354.2z"/>
					</g>
				</g>
				<g>
					<g>
						<g>
							
								<ellipse transform="matrix(0.8888 -0.4584 0.4584 0.8888 -120.3277 212.6276)" class="st3" cx="377.9" cy="354.2" rx="8.1" ry="8.1"/>
						</g>
						<g>
							<path class="st3" d="M384.7,361.3c-1.8,1.7-4.2,2.8-6.8,2.8c-2.7,0-5.1-1.1-6.8-2.8c-3.8,2.2-6.4,6.2-6.4,10.8v7.1h26.4v-7.1
								C391.1,367.5,388.5,363.5,384.7,361.3z"/>
						</g>
					</g>
					<g>
						<g>
							
								<ellipse transform="matrix(0.229 -0.9734 0.9734 0.229 -96.9822 585.9969)" class="st3" cx="321.4" cy="354.2" rx="8.1" ry="8.1"/>
						</g>
						<g>
							<path class="st3" d="M328.3,361.3c-1.8,1.7-4.2,2.8-6.8,2.8c-2.7,0-5.1-1.1-6.8-2.8c-3.8,2.2-6.4,6.2-6.4,10.8v7.1h26.4v-7.1
								C334.6,367.5,332.1,363.5,328.3,361.3z"/>
						</g>
					</g>
				</g>
			</g>
		</g>
	</g>
	<g>
		<path class="st2" d="M386,157.1h-72.3c-5.9,0-10.6-4.7-10.6-10.6V78.2c0-5.9,4.7-10.6,10.6-10.6H386c5.9,0,10.6,4.7,10.6,10.6
			v68.3C396.6,152.4,391.9,157.1,386,157.1z"/>
		<g>
			<g>
				<g>
					<path class="st8" d="M373.3,93.8c-0.4-0.5-0.8-1-1.2-1.5c-5.5-6.1-13.4-9.9-22.2-9.9c-8.8,0-16.7,3.8-22.2,9.9
						c-0.4,0.5-0.8,1-1.2,1.5c-4.1,5.1-6.5,11.6-6.5,18.6c0,7.3,2.6,14,7,19.2c0.4,0.5,0.8,1,1.3,1.4c5.5,5.7,13.1,9.3,21.6,9.3
						c8.5,0,16.2-3.6,21.6-9.3c0.5-0.5,0.9-0.9,1.3-1.4c4.4-5.2,7-11.9,7-19.2C379.8,105.4,377.4,98.9,373.3,93.8z M371.2,130.6
						c-0.4,0.5-0.9,1-1.3,1.4c-3.6,3.7-8.2,6.4-13.4,7.6c-1.8,0.5-3.7,0.7-5.7,0.8c-0.3,0-0.6,0-0.9,0c-0.3,0-0.6,0-0.9,0
						c-1.9-0.1-3.8-0.3-5.6-0.8c-5.2-1.2-9.8-3.9-13.4-7.6c-0.5-0.5-0.9-0.9-1.3-1.4c-4-4.7-6.5-10.7-6.7-17.2c0-0.3,0-0.6,0-0.9
						c0-0.3,0-0.6,0-0.9c0.2-6.2,2.5-12,6.1-16.6c0.4-0.5,0.8-1,1.2-1.5c3.7-4,8.6-7,14-8.3c1.8-0.4,3.7-0.7,5.6-0.8
						c0.3,0,0.6,0,0.9,0c0.3,0,0.6,0,0.9,0c1.9,0.1,3.8,0.3,5.7,0.8c5.5,1.3,10.3,4.3,14,8.3c0.4,0.5,0.8,1,1.2,1.5
						c3.7,4.6,5.9,10.3,6.1,16.6c0,0.3,0,0.6,0,0.9c0,0.3,0,0.6,0,0.9C377.7,119.9,375.2,125.9,371.2,130.6z"/>
				</g>
				<g>
					<path class="st8" d="M365.5,111.4c-0.1-4.6-0.6-8.8-1.6-12.6c-0.2-0.6-0.3-1.2-0.5-1.8c-1.6-5.2-4-9.3-6.9-11.9
						c-2-1.7-4.2-2.7-6.6-2.7c-2.4,0-4.6,0.9-6.6,2.7c-2.9,2.5-5.3,6.7-6.9,11.9c-0.2,0.6-0.4,1.2-0.5,1.8c-1,3.8-1.6,8-1.6,12.6
						c0,0.3,0,0.6,0,0.9c0,0.3,0,0.6,0,0.9c0.1,4.9,0.7,9.5,1.9,13.5c0.2,0.6,0.4,1.2,0.6,1.8c1.6,4.8,3.9,8.6,6.6,11
						c2,1.7,4.2,2.7,6.6,2.7c2.4,0,4.6-1,6.6-2.7c2.7-2.4,5-6.2,6.6-11c0.2-0.6,0.4-1.2,0.6-1.8c1.1-4,1.8-8.6,1.9-13.5
						c0-0.3,0-0.6,0-0.9C365.6,112.1,365.6,111.8,365.5,111.4z M361.9,126.3c-0.2,0.6-0.4,1.2-0.6,1.8c-2.3,7-6.1,11.7-10.5,12.3
						c-0.3,0.1-0.6,0.1-0.9,0.1c-0.3,0-0.6,0-0.9-0.1c-4.4-0.6-8.2-5.3-10.5-12.3c-0.2-0.6-0.4-1.2-0.6-1.8
						c-1.1-3.8-1.7-8.2-1.8-12.9c0-0.3,0-0.6,0-0.9c0-0.3,0-0.6,0-0.9c0.1-4.3,0.6-8.4,1.5-12c0.2-0.6,0.3-1.2,0.5-1.8
						c2.3-7.5,6.2-12.6,10.8-13.2c0.3-0.1,0.6-0.1,0.9-0.1c0.3,0,0.6,0,0.9,0.1c4.6,0.6,8.5,5.8,10.8,13.2c0.2,0.6,0.4,1.2,0.5,1.8
						c0.9,3.6,1.5,7.7,1.6,12c0,0.3,0,0.6,0,0.9c0,0.3,0,0.6,0,0.9C363.6,118,362.9,122.4,361.9,126.3z"/>
				</g>
				<g>
					<path class="st8" d="M372.1,92.3c-0.5,0.4-1,0.7-1.6,1.1c-2.2,1.5-4.6,2.6-7.1,3.6c-0.6,0.2-1.2,0.4-1.8,0.6
						c-3.4,1.1-7,1.7-10.8,1.8c-0.3,0-0.6,0-0.9,0c-0.3,0-0.6,0-0.9,0c-3.7-0.1-7.4-0.7-10.8-1.8c-0.6-0.2-1.2-0.4-1.8-0.6
						c-2.5-0.9-4.9-2.1-7.1-3.6c-0.5-0.3-1.1-0.7-1.6-1.1c-0.4,0.5-0.8,1-1.2,1.5c0.5,0.4,1,0.7,1.6,1.1c2.4,1.6,5.1,2.9,7.8,4
						c0.6,0.2,1.2,0.4,1.8,0.6c3.6,1.1,7.4,1.8,11.3,1.9c0.3,0,0.6,0,0.9,0c0.3,0,0.6,0,0.9,0c3.9-0.1,7.7-0.7,11.3-1.9
						c0.6-0.2,1.2-0.4,1.8-0.6c2.8-1,5.4-2.4,7.8-4c0.5-0.3,1-0.7,1.6-1.1C372.9,93.3,372.5,92.8,372.1,92.3z"/>
				</g>
				<g>
					<path class="st8" d="M371.2,130.6c-2.4-1.5-4.9-2.7-7.5-3.7c-0.6-0.2-1.2-0.4-1.8-0.6c-3.5-1.1-7.2-1.7-11-1.8
						c-0.3,0-0.6,0-0.9,0c-0.3,0-0.6,0-0.9,0c-3.8,0.1-7.5,0.7-11,1.8c-0.6,0.2-1.2,0.4-1.8,0.6c-2.6,1-5.2,2.2-7.5,3.7
						c-0.5,0.3-1.1,0.7-1.6,1.1c0.4,0.5,0.8,1,1.3,1.4c0.5-0.4,1.1-0.7,1.6-1c2.1-1.3,4.4-2.4,6.8-3.3c0.6-0.2,1.2-0.4,1.8-0.6
						c3.3-1,6.8-1.6,10.5-1.7c0.3,0,0.6,0,0.9,0c0.3,0,0.6,0,0.9,0c3.6,0.1,7.2,0.7,10.5,1.7c0.6,0.2,1.2,0.4,1.8,0.6
						c2.4,0.9,4.6,2,6.8,3.3c0.6,0.3,1.1,0.7,1.6,1c0.5-0.5,0.9-0.9,1.3-1.4C372.3,131.3,371.7,130.9,371.2,130.6z"/>
				</g>
				<g>
					<rect x="320.9" y="111.4" class="st8" width="58" height="1.9"/>
				</g>
				<g>
					<rect x="348.9" y="83.4" class="st8" width="1.9" height="58"/>
				</g>
			</g>
		</g>
	</g>
	<g>
		<path class="st2" d="M117.9,301H53.1c-5.9,0-10.6-4.7-10.6-10.6v-61.2c0-5.9,4.7-10.6,10.6-10.6h64.9c5.9,0,10.6,4.7,10.6,10.6
			v61.2C128.5,296.3,123.8,301,117.9,301z"/>
		<g>
			<rect x="51.3" y="225.4" class="st8" width="33.1" height="5.9"/>
			<g>
				<rect x="98.5" y="225.4" class="st4" width="5.7" height="5.9"/>
				<rect x="106.2" y="225.4" class="st4" width="5.7" height="5.9"/>
				<rect x="113.9" y="225.4" class="st4" width="5.7" height="5.9"/>
			</g>
		</g>
	</g>
	<g>
		<path class="st9" d="M155.8,175h-60c-5.9,0-10.6-4.7-10.6-10.6v-56.5c0-5.9,4.7-10.6,10.6-10.6h60c5.9,0,10.6,4.7,10.6,10.6v56.5
			C166.4,170.2,161.6,175,155.8,175z"/>
		<g>
			<g>
				<g>
					<path class="st4" d="M95.1,159.9v4.9c0,1.1,8.3,2,18.6,2c10.3,0,18.6-0.9,18.6-2v-4.9H95.1z"/>
					<path class="st10" d="M132.2,159.9c0,1.1-8.3,2-18.6,2c-10.3,0-18.6-0.9-18.6-2c0-1.1,8.3-2,18.6-2
						C123.9,157.9,132.2,158.8,132.2,159.9z"/>
				</g>
				<g>
					<path class="st8" d="M95.1,155.1v4.9c0,1.1,8.3,2,18.6,2c10.3,0,18.6-0.9,18.6-2v-4.9H95.1z"/>
					<ellipse class="st10" cx="113.7" cy="155.1" rx="18.6" ry="2"/>
				</g>
				<g>
					<path class="st4" d="M95.1,150.2v4.9c0,1.1,8.3,2,18.6,2c10.3,0,18.6-0.9,18.6-2v-4.9H95.1z"/>
					<path class="st10" d="M132.2,150.2c0,1.1-8.3,2-18.6,2c-10.3,0-18.6-0.9-18.6-2c0-1.1,8.3-2,18.6-2
						C123.9,148.2,132.2,149.1,132.2,150.2z"/>
				</g>
				<g>
					<path class="st4" d="M95.1,140.5v4.9c0,1.1,8.3,2,18.6,2c10.3,0,18.6-0.9,18.6-2v-4.9H95.1z"/>
					<path class="st10" d="M132.2,140.5c0,1.1-8.3,2-18.6,2c-10.3,0-18.6-0.9-18.6-2c0-1.1,8.3-2,18.6-2
						C123.9,138.5,132.2,139.4,132.2,140.5z"/>
				</g>
				<g>
					<path class="st8" d="M95.1,145.4v4.9c0,1.1,8.3,2,18.6,2c10.3,0,18.6-0.9,18.6-2v-4.9H95.1z"/>
					<path class="st4" d="M132.2,145.4c0,1.1-8.3,2-18.6,2c-10.3,0-18.6-0.9-18.6-2c0-1.1,8.3-2,18.6-2
						C123.9,143.4,132.2,144.3,132.2,145.4z"/>
				</g>
				<g>
					<path class="st8" d="M95.1,135.7v4.9c0,1.1,8.3,2,18.6,2c10.3,0,18.6-0.9,18.6-2v-4.9H95.1z"/>
					<path class="st4" d="M132.2,135.7c0,1.1-8.3,2-18.6,2c-10.3,0-18.6-0.9-18.6-2c0-1.1,8.3-2,18.6-2
						C123.9,133.7,132.2,134.6,132.2,135.7z"/>
				</g>
			</g>
			<g>
				
					<ellipse transform="matrix(0.2279 -0.9737 0.9737 0.2279 -15.053 229.8899)" class="st4" cx="137.4" cy="124.4" rx="19.1" ry="19.1"/>
				<g>
					<path class="st8" d="M137.4,141.2c-9.2,0-16.8-7.5-16.8-16.8s7.5-16.8,16.8-16.8s16.8,7.5,16.8,16.8S146.7,141.2,137.4,141.2z
						 M137.4,109.1c-8.4,0-15.3,6.9-15.3,15.3c0,8.4,6.9,15.3,15.3,15.3c8.4,0,15.3-6.9,15.3-15.3
						C152.7,116,145.9,109.1,137.4,109.1z"/>
				</g>
			</g>
		</g>
	</g>
	<g>
		<path class="st9" d="M182.6,417.8h-72.3c-5.9,0-10.6-4.7-10.6-10.6v-68.3c0-5.9,4.7-10.6,10.6-10.6h72.3c5.9,0,10.6,4.7,10.6,10.6
			v68.3C193.2,413,188.5,417.8,182.6,417.8z"/>
		<g>
			<g>
				<g>
					<rect x="133.1" y="372.2" class="st3" width="6.3" height="21.2"/>
				</g>
				<g>
					<rect x="162.6" y="355" class="st3" width="6.3" height="38.4"/>
				</g>
				<g>
					<rect x="142.9" y="378.5" class="st3" width="6.3" height="14.9"/>
				</g>
				<g>
					<rect x="171.8" y="360.6" class="st3" width="6.3" height="32.8"/>
				</g>
				<g>
					<rect x="124.9" y="378.5" class="st3" width="5.3" height="14.9"/>
				</g>
				<g>
					<rect x="152.5" y="362.4" class="st3" width="6.3" height="31"/>
				</g>
				<g>
					<g>
						<path class="st3" d="M119.4,403.5c-0.2,0-0.4-0.2-0.4-0.4V343c0-0.2,0.2-0.4,0.4-0.4c0.2,0,0.4,0.2,0.4,0.4v60.1
							C119.8,403.3,119.6,403.5,119.4,403.5z"/>
					</g>
					<g>
						<path class="st3" d="M174.9,399.2h-60.1c-0.2,0-0.4-0.2-0.4-0.4s0.2-0.4,0.4-0.4h60.1c0.2,0,0.4,0.2,0.4,0.4
							S175.2,399.2,174.9,399.2z"/>
					</g>
				</g>
				<g>
					<path class="st3" d="M126.3,368.7c-0.1,0-0.2,0-0.3-0.1c-0.1-0.2-0.1-0.4,0-0.6l9.9-8.8c0.1-0.1,0.4-0.1,0.5,0l9.1,7.3
						l19.9-22.5c0.1-0.1,0.2-0.1,0.3-0.1c0.1,0,0.2,0,0.3,0.1l10,9.5c0.2,0.1,0.2,0.4,0,0.6c-0.1,0.2-0.4,0.2-0.6,0l-9.7-9.2
						l-19.9,22.5c-0.1,0.2-0.4,0.2-0.5,0l-9.1-7.4l-9.6,8.6C126.5,368.7,126.4,368.7,126.3,368.7z"/>
				</g>
			</g>
		</g>
	</g>
	<g>
		<g>
			<g>
				<g>
					<path class="st3" d="M435.5,312.7h-16.2c-0.4,0-0.7-0.3-0.7-0.7c0-0.4,0.3-0.7,0.7-0.7h16.2c0.4,0,0.7,0.3,0.7,0.7
						C436.2,312.4,435.9,312.7,435.5,312.7z"/>
				</g>
				<g>
					<path class="st3" d="M410,312.7h-12.1c-0.4,0-0.7-0.3-0.7-0.7c0-0.4,0.3-0.7,0.7-0.7H410c0.4,0,0.7,0.3,0.7,0.7
						C410.7,312.4,410.4,312.7,410,312.7z"/>
				</g>
				<g>
					<path class="st3" d="M413.6,302.9h-26.9c-0.4,0-0.7-0.3-0.7-0.7c0-0.4,0.3-0.7,0.7-0.7h26.9c0.4,0,0.7,0.3,0.7,0.7
						C414.3,302.6,414,302.9,413.6,302.9z"/>
				</g>
			</g>
			<g>
				<g>
					<path class="st3" d="M113.3,192.4H94.9c-0.4,0-0.7-0.3-0.7-0.7c0-0.4,0.3-0.7,0.7-0.7h18.4c0.4,0,0.7,0.3,0.7,0.7
						C114,192.1,113.7,192.4,113.3,192.4z"/>
				</g>
				<g>
					<path class="st3" d="M85.8,192.4H67.9c-0.4,0-0.7-0.3-0.7-0.7c0-0.4,0.3-0.7,0.7-0.7h17.9c0.4,0,0.7,0.3,0.7,0.7
						C86.4,192.1,86.1,192.4,85.8,192.4z"/>
				</g>
				<g>
					<path class="st3" d="M116.1,200.2H85.3c-0.4,0-0.7-0.3-0.7-0.7c0-0.4,0.3-0.7,0.7-0.7h30.7c0.4,0,0.7,0.3,0.7,0.7
						C116.8,199.9,116.5,200.2,116.1,200.2z"/>
				</g>
			</g>
			<g>
				<g>
					<path class="st3" d="M323.3,424.9h-24.5c-0.4,0-0.7-0.3-0.7-0.7c0-0.4,0.3-0.7,0.7-0.7h24.5c0.4,0,0.7,0.3,0.7,0.7
						C324,424.6,323.7,424.9,323.3,424.9z"/>
				</g>
				<g>
					<path class="st3" d="M339.2,415.2h-36c-0.4,0-0.7-0.3-0.7-0.7c0-0.4,0.3-0.7,0.7-0.7h36c0.4,0,0.7,0.3,0.7,0.7
						C339.8,414.9,339.5,415.2,339.2,415.2z"/>
				</g>
				<g>
					<path class="st3" d="M296.7,415.2h-13.5c-0.4,0-0.7-0.3-0.7-0.7c0-0.4,0.3-0.7,0.7-0.7h13.5c0.4,0,0.7,0.3,0.7,0.7
						C297.3,414.9,297,415.2,296.7,415.2z"/>
				</g>
			</g>
			<g>
				<g>
					<path class="st3" d="M197.9,91H164c-0.4,0-0.7-0.3-0.7-0.7c0-0.4,0.3-0.7,0.7-0.7h33.9c0.4,0,0.7,0.3,0.7,0.7
						C198.6,90.7,198.3,91,197.9,91z"/>
				</g>
				<g>
					<path class="st3" d="M210.7,100.4h-29.2c-0.4,0-0.7-0.3-0.7-0.7c0-0.4,0.3-0.7,0.7-0.7h29.2c0.4,0,0.7,0.3,0.7,0.7
						C211.4,100.1,211.1,100.4,210.7,100.4z"/>
				</g>
			</g>
		</g>
	</g>
	<path class="st5" d="M320.3,196.8h-60.5c-5.9,0-10.6-4.7-10.6-10.6v-57c0-5.9,4.7-10.6,10.6-10.6h60.5c5.9,0,10.6,4.7,10.6,10.6v57
		C330.9,192,326.2,196.8,320.3,196.8z"/>
	<g>
		<path class="st9" d="M315,191.9h-60.5c-5.9,0-10.6-4.7-10.6-10.6v-57c0-5.9,4.7-10.6,10.6-10.6H315c5.9,0,10.6,4.7,10.6,10.6v57
			C325.6,187.2,320.8,191.9,315,191.9z"/>
		<g>
			<path class="st3" d="M303.2,170.3c-9.6,10.7-26,11.5-36.7,1.9c-10.7-9.6-11.5-26-1.9-36.7c6.7-7.5,16.8-10.1,25.9-7.8l-8.9,26.4
				l28.2,0.4C309.3,160,307.2,165.9,303.2,170.3z"/>
			<path class="st4" d="M286.6,151.5l26.4,0.2c0-7.2-3-14.6-8.7-19.8c-2.8-2.5-5.9-4.3-9.2-5.4L286.6,151.5z"/>
		</g>
	</g>
	<path class="st5" d="M244,436h-67.7c-5.9,0-10.6-4.7-10.6-10.6v-63.9c0-5.9,4.7-10.6,10.6-10.6H244c5.9,0,10.6,4.7,10.6,10.6v63.9
		C254.6,431.2,249.9,436,244,436z"/>
	<g>
		<path class="st2" d="M249.4,440.7h-64.9c-5.9,0-10.6-4.7-10.6-10.6v-61.2c0-5.9,4.7-10.6,10.6-10.6h64.9c5.9,0,10.6,4.7,10.6,10.6
			v61.2C260,436,255.3,440.7,249.4,440.7z"/>
		<g>
			<g>
				<path class="st8" d="M240.1,385.9l-43.4-7.2c0,0,0,0-0.1,0c0,0-0.1,0-0.1,0c-0.1,0-0.3,0-0.4,0c0,0,0,0-0.1,0l-6.3,2.1
					c-0.7,0.2-1.1,1-0.9,1.7c0.2,0.6,0.7,0.9,1.3,0.9c0.1,0,0.3,0,0.4-0.1l5.1-1.7l9.7,26.8c0,0,0,0,0,0c-0.4,0.3-3.6,3.4-3.6,6.3
					c0,0.8,0.6,1.4,1.4,1.4h32.7c0.8,0,1.4-0.6,1.4-1.4c0-0.8-0.6-1.4-1.4-1.4h-30.9c0.6-1.1,1.5-2.2,2.3-2.9
					c0.2-0.2,0.3-0.5,0.4-0.7h30.7c0.7,0,1.3-0.5,1.4-1.3l1.6-21.2C241.3,386.6,240.8,386,240.1,385.9z M237.9,395.3h-10v-8.7
					l10.5,1.7L237.9,395.3z M215.1,395.3v-10.8l11.4,1.9v8.9H215.1z M226.5,396.7v10.4h-11.4v-10.4H226.5z M213.7,384.3v11.1h-10.3
					l-4.9-13.6L213.7,384.3z M203.9,396.7h9.8v10.4h-6L203.9,396.7z M227.9,407.1v-10.4h9.9l-0.8,10.4H227.9z"/>
				<path class="st8" d="M205.7,417.7c-1.9,0-3.5,1.5-3.5,3.5c0,1.9,1.5,3.5,3.5,3.5c1.9,0,3.5-1.5,3.5-3.5
					C209.2,419.2,207.6,417.7,205.7,417.7z"/>
				<path class="st8" d="M232.3,417.7c-1.9,0-3.5,1.5-3.5,3.5c0,1.9,1.5,3.5,3.5,3.5c1.9,0,3.5-1.5,3.5-3.5
					C235.8,419.2,234.2,417.7,232.3,417.7z"/>
			</g>
		</g>
	</g>
	<path class="st7" d="M412.6,416.6l-5.2-2.5c0.2-1.2,0.2-2.4,0.1-3.6l5.4-2.1c2-0.8,3-3,2.2-5l-1.7-4.4c-0.8-2-3-3-5-2.2l-5.4,2.1
		c-0.5-0.7-1.1-1.3-1.7-1.9l2.5-5.2c0.9-1.9,0.1-4.2-1.8-5.1l-4.3-2c-1.9-0.9-4.2-0.1-5.1,1.8l-2.5,5.2c-0.9-0.1-1.7-0.2-2.5-0.2
		l-1.8-5.5c-0.7-2-2.8-3.1-4.9-2.5l-4.5,1.5c-2,0.7-3.1,2.8-2.5,4.9l1.8,5.5c-1,0.7-1.9,1.5-2.7,2.4l-5.2-2.5
		c-1.9-0.9-4.2-0.1-5.1,1.8l-2,4.3c-0.9,1.9-0.1,4.2,1.8,5.1l5.2,2.5c-0.2,1.2-0.2,2.4-0.1,3.6l-5.4,2.1c-2,0.8-3,3-2.2,5l1.7,4.4
		c0.8,2,3,3,5,2.2l5.4-2.1c0.5,0.7,1.1,1.3,1.7,1.9l-2.5,5.2c-0.9,1.9-0.1,4.2,1.8,5.1l4.3,2c1.9,0.9,4.2,0.1,5.1-1.8l2.5-5.2
		c0.9,0.1,1.7,0.2,2.5,0.2l1.8,5.5c0.7,2,2.8,3.1,4.9,2.5l4.5-1.5c2-0.7,3.1-2.8,2.5-4.9l-1.8-5.5c1-0.7,1.9-1.5,2.7-2.4l5.2,2.5
		c1.9,0.9,4.2,0.1,5.1-1.8l2-4.3C415.3,419.8,414.5,417.5,412.6,416.6z M381.9,423.2c-6.4-3-9.1-10.7-6.1-17.1
		c3-6.4,10.7-9.1,17.1-6.1c6.4,3,9.1,10.7,6.1,17.1C396,423.5,388.3,426.3,381.9,423.2z"/>
	<g>
		<path class="st7" d="M97.7,122.7l-4.5-2.4c0.2-1.1,0.3-2.1,0.2-3.2l4.8-1.7c1.8-0.6,2.7-2.6,2.1-4.3l-1.4-3.9
			c-0.6-1.8-2.6-2.7-4.3-2.1l-4.8,1.7c-0.5-0.6-0.9-1.2-1.5-1.7l2.4-4.5c0.9-1.7,0.2-3.7-1.5-4.6l-3.7-1.9c-1.7-0.9-3.7-0.2-4.6,1.5
			l-2.4,4.5c-0.7-0.1-1.5-0.2-2.2-0.2l-1.4-4.9c-0.5-1.8-2.4-2.9-4.2-2.3l-4,1.2c-1.8,0.5-2.9,2.4-2.3,4.2l1.4,4.9
			c-0.9,0.6-1.7,1.3-2.5,2l-4.5-2.4c-1.7-0.9-3.7-0.2-4.6,1.5l-1.9,3.7c-0.9,1.7-0.2,3.7,1.5,4.6l4.5,2.4c-0.2,1.1-0.3,2.1-0.2,3.2
			l-4.8,1.7c-1.8,0.6-2.7,2.6-2.1,4.3l1.4,4c0.6,1.8,2.6,2.7,4.3,2.1l4.8-1.7c0.5,0.6,0.9,1.2,1.5,1.7l-2.4,4.5
			c-0.9,1.7-0.2,3.7,1.5,4.6l3.7,1.9c1.7,0.9,3.7,0.2,4.6-1.5l2.4-4.5c0.7,0.1,1.5,0.2,2.2,0.2l1.4,4.9c0.5,1.8,2.4,2.9,4.2,2.3
			l4-1.2c1.8-0.5,2.9-2.4,2.3-4.2l-1.4-4.9c0.9-0.6,1.7-1.3,2.5-2l4.5,2.4c1.7,0.9,3.7,0.2,4.6-1.5l1.9-3.7
			C100,125.6,99.4,123.5,97.7,122.7z M70.5,127.5c-5.6-2.9-7.7-9.8-4.8-15.3c2.9-5.6,9.8-7.7,15.3-4.8c5.6,2.9,7.7,9.8,4.8,15.3
			C82.9,128.2,76,130.4,70.5,127.5z"/>
		<path class="st7" d="M127.8,85.3l-3.9-2c0.1-0.9,0.2-1.8,0.2-2.7l4.2-1.4c1.5-0.5,2.3-2.2,1.8-3.7l-1.2-3.4
			c-0.5-1.5-2.2-2.3-3.7-1.8l-4.2,1.4c-0.4-0.5-0.8-1-1.3-1.5l2-3.9c0.7-1.4,0.2-3.2-1.2-3.9l-3.2-1.7c-1.4-0.7-3.2-0.2-3.9,1.2
			l-2,3.9c-0.6-0.1-1.3-0.2-1.9-0.2l-1.2-4.2c-0.4-1.6-2.1-2.5-3.6-2l-3.4,1c-1.6,0.4-2.5,2.1-2,3.6l1.2,4.2
			c-0.7,0.5-1.5,1.1-2.1,1.7l-3.9-2c-1.4-0.7-3.2-0.2-3.9,1.2l-1.7,3.2c-0.7,1.4-0.2,3.2,1.2,3.9l3.9,2c-0.1,0.9-0.2,1.8-0.2,2.7
			l-4.2,1.4c-1.5,0.5-2.3,2.2-1.8,3.7l1.2,3.4c0.5,1.5,2.2,2.3,3.7,1.8l4.2-1.4c0.4,0.5,0.8,1,1.3,1.5l-2,3.9
			c-0.7,1.4-0.2,3.2,1.2,3.9l3.2,1.7c1.4,0.7,3.2,0.2,3.9-1.2l2-3.9c0.6,0.1,1.3,0.2,1.9,0.2l1.2,4.2c0.4,1.6,2.1,2.5,3.6,2l3.4-1
			c1.6-0.4,2.5-2.1,2-3.6l-1.2-4.2c0.7-0.5,1.5-1.1,2.1-1.7l3.9,2c1.4,0.7,3.2,0.2,3.9-1.2l1.7-3.2
			C129.7,87.8,129.2,86.1,127.8,85.3z M104.4,89.5c-4.8-2.5-6.6-8.4-4.1-13.1c2.5-4.8,8.4-6.6,13.1-4.1c4.8,2.5,6.6,8.4,4.1,13.1
			C115,90.1,109.1,91.9,104.4,89.5z"/>
	</g>
	<g>
		<g>
			<circle class="st7" cx="247.3" cy="100" r="5.7"/>
		</g>
		<g>
			<path class="st7" d="M261,92.3c-0.5,0-1-0.3-1.3-0.9c-2.5-5-7.3-8.2-12.4-8.2c-5.1,0-9.9,3.1-12.4,8.2c-0.4,0.8-1.3,1.1-2,0.6
				c-0.7-0.5-1-1.5-0.6-2.3c3.1-6.1,8.8-9.9,15-9.9s12,3.8,15,9.9c0.4,0.8,0.1,1.8-0.6,2.3C261.5,92.2,261.2,92.3,261,92.3z"/>
		</g>
		<g>
			<path class="st7" d="M226.2,86.8c-0.2,0-0.5-0.1-0.7-0.2c-0.7-0.5-1-1.5-0.6-2.3c4.5-9.1,13.1-14.7,22.3-14.7
				c9.2,0,17.8,5.6,22.3,14.7c0.4,0.8,0.1,1.8-0.6,2.3c-0.7,0.5-1.6,0.2-2-0.6c-4-8-11.5-13-19.7-13s-15.7,5-19.7,13
				C227.3,86.5,226.8,86.8,226.2,86.8z"/>
		</g>
		<g>
			<path class="st7" d="M273.5,79.9c-0.5,0-1-0.3-1.3-0.9c-5.1-10.1-14.6-16.4-24.9-16.4c-10.3,0-19.9,6.3-24.9,16.4
				c-0.4,0.8-1.3,1.1-2,0.6c-0.7-0.5-1-1.5-0.6-2.3c5.6-11.2,16.1-18.1,27.5-18.1c11.4,0,22,6.9,27.5,18.1c0.4,0.8,0.2,1.8-0.6,2.3
				C274,79.9,273.7,79.9,273.5,79.9z"/>
		</g>
	</g>
</g>
<g id="TEXTS">
	<g>
		<path class="st8" d="M152.3,262l2.9-6.3c3.1,2.2,7.6,3.8,12,3.8c5,0,7-1.7,7-3.9c0-6.8-21.1-2.1-21.1-15.6c0-6.2,5-11.3,15.3-11.3
			c4.6,0,9.2,1.1,12.6,3.2l-2.6,6.4c-3.4-1.9-6.8-2.9-10.1-2.9c-5,0-6.9,1.9-6.9,4.1c0,6.7,21.1,2.1,21.1,15.4
			c0,6.1-5,11.2-15.4,11.2C161.3,266.3,155.5,264.5,152.3,262z"/>
		<path class="st8" d="M190.8,229.4l8.4,0l0,36.3l-8.4,0L190.8,229.4z"/>
		<path class="st8" d="M234.9,247l7.7,0l0,14.7c-4,3-9.5,4.6-14.7,4.6c-11.4,0-19.8-7.8-19.8-18.8s8.4-18.8,20-18.7
			c6.4,0,11.7,2.2,15.2,6.3l-5.4,5c-2.6-2.8-5.7-4.1-9.4-4.1c-7,0-11.9,4.7-11.9,11.6c0,6.8,4.8,11.6,11.8,11.6
			c2.3,0,4.4-0.4,6.5-1.5L234.9,247z"/>
		<path class="st8" d="M285.9,265.7l0-21.8l-10.7,17.9l-3.8,0l-10.6-17.5l0,21.3l-7.9,0l0-36.3l6.9,0l13.6,22.6l13.4-22.5l6.9,0
			l0.1,36.3L285.9,265.7z"/>
		<path class="st8" d="M328.9,258l-16.8,0l-3.2,7.8l-8.6,0l16.2-36.3l8.3,0l16.2,36.3l-8.8,0L328.9,258z M326.3,251.6l-5.7-13.9
			l-5.8,13.9L326.3,251.6z"/>
	</g>
	<text transform="matrix(1 9.000000e-04 -9.000000e-04 1 53.2878 276.6816)" class="st8 st11 st12 st13">&lt;/&gt;</text>
	<text transform="matrix(1 9.000000e-04 -9.000000e-04 1 129.9226 132.603)" class="st8 st11 st14">$</text>
</g>
</svg>
